<?xml version="1.0" encoding="UTF-8" standalone="no"?>
<svg width="216px" height="145px" viewBox="0 0 216 145" version="1.1" xmlns="http://www.w3.org/2000/svg" xmlns:xlink="http://www.w3.org/1999/xlink">
    <!-- Generator: Sketch 3.6.1 (26313) - http://www.bohemiancoding.com/sketch -->
    <title>taply-logo-dark</title>
    <desc>Created with Sketch.</desc>
    <defs>
        <linearGradient x1="50%" y1="0%" x2="50%" y2="169.073723%" id="linearGradient-1">
            <stop stop-color="#EF0781" offset="0%"></stop>
            <stop stop-color="#F7551D" offset="100%"></stop>
        </linearGradient>
    </defs>
    <g id="Page-1" stroke="none" stroke-width="1" fill="none" fill-rule="evenodd">
        <g id="Artboard-1" transform="translate(-380.000000, -223.000000)">
            <g id="taply-logo-dark" transform="translate(380.000000, 223.000000)">
                <text id="drum-in-thin-air" font-family="HoratioDOT-Light, Horatio D OT" font-size="27" font-weight="300" letter-spacing="-0.199115261" fill="#555555">
                    <tspan x="72" y="144">drum in thin air</tspan>
                </text>
                <circle id="Oval-5-Copy-2" fill-opacity="0.05" fill="#000000" cx="157" cy="22" r="22"></circle>
                <circle id="Oval-5-Copy-2" fill-opacity="0.05" fill="#000000" cx="157" cy="22" r="15"></circle>
                <path d="M31.9690797,92.6088393 L31.9690797,79.7541394 C23.4737997,79.7541394 21.6853198,77.5185395 22.0206598,67.3465596 L22.0206598,57.7334797 L31.9690797,57.7334797 L31.9690797,44.5434398 L22.0206598,44.5434398 L22.0206598,28.11178 L8.27171991,28.11178 L8.27171991,44.5434398 L0,44.5434398 L0,57.7334797 L8.27171991,57.7334797 L8.27171991,66.0051996 C8.38349991,76.5125195 8.49527991,77.9656595 9.94841989,81.2072794 C13.4135999,88.5847593 20.2321798,92.6088393 29.1745797,92.6088393 L31.9690797,92.6088393 Z M85.9169418,92.4970593 L85.9169418,71.4824195 C85.9169418,63.4342596 84.5755818,58.8512797 80.8868419,53.9329597 C76.1920819,47.6732798 68.814602,43.9845398 60.9900021,43.9845398 C47.3528422,43.9845398 36.1748424,55.0507597 36.1748424,68.5761396 C36.1748424,81.6543994 47.0175022,93.0559593 59.4250821,93.0559593 C63.7845021,93.0559593 67.585022,91.7145993 72.168002,88.5847593 L72.168002,92.4970593 L85.9169418,92.4970593 Z M60.9900021,57.2863597 C67.026122,57.2863597 72.056222,62.5400196 72.056222,68.7996996 C72.056222,74.9475995 67.026122,80.0894794 61.1017821,80.0894794 C54.9538821,80.0894794 49.8120022,74.8358195 49.8120022,68.5761396 C49.8120022,62.3164596 54.8421021,57.2863597 60.9900021,57.2863597 L60.9900021,57.2863597 Z M94.1467845,118.988919 L107.783944,118.988919 L107.783944,89.7025593 C112.478704,92.1617193 115.943884,93.1677393 119.967964,93.1677393 C132.822664,93.1677393 143.665324,81.7661794 143.665324,68.3525796 C143.665324,54.7154197 132.599104,43.6491998 118.961944,43.6491998 C111.472684,43.6491998 104.318764,47.1143798 99.7357844,52.9269397 C95.1528045,58.6277197 94.1467845,62.5400196 94.1467845,74.5004795 L94.1467845,118.988919 Z M118.961944,56.9510197 C124.998064,56.9510197 130.028164,62.2046796 130.028164,68.4643596 C130.028164,74.7240395 125.109844,79.7541394 118.850164,79.7541394 C112.702264,79.7541394 107.783944,74.7240395 107.783944,68.2407996 C107.783944,62.0928996 112.925824,56.9510197 118.961944,56.9510197 Z M163.63716,92.4970593 L161.63716,28 L152,28 L150,92.4970593 L163.63716,92.4970593 Z M215.791449,44.5434398 L202.154289,44.5434398 L202.154289,67.0112196 C202.042509,73.2708995 202.042509,73.4944595 201.707169,74.8358195 C200.924709,77.7420995 197.683089,80.0894794 194.441469,80.0894794 C191.199849,80.0894794 188.070009,77.7420995 187.287549,74.7240395 C186.840429,73.0473395 186.840429,72.1530995 186.840429,66.7876596 L186.840429,44.5434398 L173.538609,44.5434398 L173.538609,66.8994396 C173.538609,75.9536195 173.873949,78.6363394 175.662429,82.4368594 C178.456929,88.6965393 185.163729,92.8323993 192.429429,92.8323993 C196.006389,92.8323993 198.800889,92.0499393 202.154289,90.1496793 L202.154289,94.3973193 C202.154289,98.4213992 201.930729,100.098099 201.036489,101.886579 C199.806909,104.569299 196.788849,106.357779 193.770789,106.357779 C188.964249,106.357779 185.722629,102.780819 185.387289,96.7446992 L171.750129,96.7446992 C172.197249,102.333699 173.203269,105.575319 175.885989,109.375839 C180.021849,115.411959 186.952209,119.100699 193.994349,119.100699 C200.924709,119.100699 207.855069,115.635519 211.767369,109.934739 C215.120769,105.239979 215.791449,102.333699 215.791449,91.8263793 L215.791449,44.5434398 Z" id="taply-copy" fill="url(#linearGradient-1)"></path>
                <circle id="Oval-4-Copy" fill="#EF0781" cx="157" cy="22" r="8"></circle>
            </g>
        </g>
    </g>
</svg>